<svg width="1362" height="200" viewBox="0 0 1362 200" fill="none" xmlns="http://www.w3.org/2000/svg">
<mask id="mask0_1_703" style="mask-type:alpha" maskUnits="userSpaceOnUse" x="0" y="0" width="1362" height="200">
<rect width="1362" height="200" rx="10" fill="url(#paint0_linear_1_703)"/>
</mask>
<g mask="url(#mask0_1_703)">
<rect width="1362" height="200" rx="10" fill="url(#paint1_linear_1_703)"/>
<g opacity="0.1">
<g style="mix-blend-mode:soft-light">
<mask id="mask1_1_703" style="mask-type:luminance" maskUnits="userSpaceOnUse" x="-526" y="-249" width="2139" height="2140">
<path d="M-526 -249H1613V1890.38H-526V-249Z" fill="white"/>
</mask>
<g mask="url(#mask1_1_703)">
<path style="mix-blend-mode:soft-light" d="M-243.854 963.313C11.8072 1309.69 144.221 1846.57 -25.88 2442.54C265.431 2350.85 550.631 2199.06 810.367 1987.16C803.237 983.688 210.429 266.488 -401.733 62.7383C-404.789 74.9633 -406.826 86.1695 -409.881 98.3945C-266.263 366.326 -211.26 668.895 -243.854 963.313Z" fill="url(#paint2_linear_1_703)"/>
<path style="mix-blend-mode:soft-light" d="M-668.597 -249C-658.411 -238.812 -647.207 -227.606 -637.021 -216.4C-213.295 -173.612 243.025 66.8126 578.135 500.8C690.178 238.981 757.403 -65.625 758.422 -395.7C496.649 -602.506 208.393 -749.206 -83.9367 -834.781C-279.502 -639.181 -474.05 -444.6 -669.615 -249H-668.597Z" fill="url(#paint3_linear_1_703)"/>
<g style="mix-blend-mode:soft-light">
<path d="M696.289 144.237C626.008 439.675 502.76 698.438 346.919 909.319C202.282 662.781 13.8461 470.237 -189.868 338.819C-100.234 134.05 -51.3423 -109.431 -63.5652 -376.344C206.356 -269.375 468.129 -95.1688 696.289 144.237Z" fill="url(#paint4_linear_1_703)"/>
</g>
<g style="mix-blend-mode:soft-light">
<path d="M-263.204 512.005C-237.74 530.343 -213.294 549.699 -189.867 570.074C-97.1768 427.449 -24.8581 259.355 17.9219 69.868C-161.347 -41.1758 -349.782 -113.507 -535.162 -148.145C-535.162 -130.826 -536.181 -114.526 -538.218 -98.2258C-397.655 85.1492 -307.002 295.012 -264.222 512.005H-263.204Z" fill="url(#paint5_linear_1_703)"/>
</g>
<path style="mix-blend-mode:soft-light" d="M532.296 444.77C1055.84 1063.15 1316.6 2160.34 783.883 3297.27C793.051 3306.44 802.218 3315.61 811.385 3324.78C1363.45 2772.61 1696.52 2084.96 1812.64 1369.79C1647.63 573.132 1216.78 -60.5305 691.193 -446.637C698.323 -118.599 638.228 183.97 532.296 444.77Z" fill="url(#paint6_linear_1_703)"/>
<path style="mix-blend-mode:soft-light" d="M933.612 -1599.86C878.609 -1629.4 822.588 -1656.91 766.566 -1683.4C669.802 -1586.62 573.038 -1489.84 476.273 -1393.05C554.703 -1207.64 608.688 -1022.23 642.301 -841.911C1128.16 -555.642 1560.03 -100.261 1844.21 492.652C1780.04 -262.242 1476.51 -1000.84 933.612 -1599.86Z" fill="url(#paint7_linear_1_703)"/>
<g style="mix-blend-mode:soft-light">
<path d="M1631.33 -456.823C1557.99 -540.36 1481.6 -619.823 1402.15 -694.191C1426.6 -383.473 1403.17 -85.9977 1343.08 189.065C1518.27 439.677 1660.87 730.021 1760.69 1050.93C1795.32 978.596 1827.92 904.227 1857.45 826.802C1861.53 391.796 1785.14 -44.2289 1631.33 -456.823Z" fill="url(#paint8_linear_1_703)"/>
</g>
<g style="mix-blend-mode:soft-light">
<path d="M651.469 -9.59143C702.397 -309.104 695.267 -643.254 610.726 -989.629C952.966 -804.216 1271.78 -541.379 1538.64 -209.266C1508.09 181.934 1406.23 541.552 1256.5 853.29C1105.75 506.915 894.907 215.552 651.469 -9.59143Z" fill="url(#paint9_linear_1_703)"/>
<path d="M1855.42 672.973C1776.99 487.561 1685.32 314.373 1580.41 154.43C1523.37 448.848 1426.6 720.855 1301.32 963.317C1409.29 1240.42 1478.55 1549.1 1496.88 1880.19C1604.85 1752.85 1704.67 1615.32 1795.32 1466.58C1845.23 1204.76 1864.59 938.867 1855.42 673.992V672.973Z" fill="url(#paint10_linear_1_703)"/>
</g>
<path style="mix-blend-mode:soft-light" d="M1812.64 1369.79C1640.5 534.42 1174 -121.655 613.782 -502.668C629.061 -178.705 577.113 121.826 479.331 381.607C1031.4 983.688 1328.82 2093.11 803.236 3255.5C851.109 3232.07 898.982 3207.62 945.836 3182.15C1417.43 2657.49 1706.71 2024.85 1812.64 1369.79Z" fill="url(#paint11_linear_1_703)"/>
<g style="mix-blend-mode:soft-light">
<path d="M1010.01 552.756C951.949 701.494 881.668 839.025 802.219 965.35C734.993 817.631 653.508 682.137 563.873 560.906C621.932 434.581 669.805 298.069 705.455 153.406C816.479 271.581 919.355 405.037 1010.01 552.756Z" fill="url(#paint12_linear_1_703)"/>
</g>
<path style="mix-blend-mode:soft-light" d="M933.612 -1599.86C878.609 -1629.4 822.588 -1656.91 766.566 -1683.4C654.523 -1571.34 542.481 -1459.27 429.419 -1346.19C493.589 -1189.3 541.462 -1033.44 573.038 -880.623C1087.42 -598.43 1545.77 -127.767 1844.21 492.652C1780.04 -262.242 1476.51 -1000.84 933.612 -1599.86Z" fill="url(#paint13_linear_1_703)"/>
<g style="mix-blend-mode:soft-light">
<path d="M1631.33 -456.823C1537.62 -563.792 1437.8 -664.648 1334.93 -756.336C1366.5 -447.655 1350.21 -152.217 1296.22 121.827C1475.49 365.308 1625.22 649.539 1733.19 965.352C1778.01 865.514 1818.75 761.602 1855.42 653.614C1840.14 276.677 1764.77 -99.2422 1631.33 -456.823Z" fill="url(#paint14_linear_1_703)"/>
</g>
<g style="mix-blend-mode:soft-light">
<path d="M1855.42 672.968C1765.78 459.03 1655.78 261.393 1531.51 81.0742C1480.58 374.474 1390.95 645.462 1270.76 887.924C1384.84 1159.93 1462.25 1463.52 1489.75 1790.54C1613 1638.74 1725.04 1472.69 1822.82 1293.39C1851.34 1087.6 1862.55 880.793 1854.4 672.968H1855.42Z" fill="url(#paint15_linear_1_703)"/>
</g>
</g>
</g>
</g>
<g opacity="0.2">
<path d="M-119.689 632.964C-29.2349 628.277 47.9545 539.885 40.7071 449.7C36.6009 398.847 10.0642 352.931 -16.893 309.667C-55.0302 248.483 -110.669 162.183 -75.6271 87.7248C-61.8523 58.5 -35.0104 35.7534 -3.88461 27.0688C43.1741 13.9227 93.3554 32.2884 141.853 27.6172C195.864 22.4611 238.649 -5.73066 258.782 -55.5496C278.005 -102.968 286.542 -153.987 306.989 -200.9C341.992 -281.212 413.072 -344.481 495.941 -372.265C591.888 -404.343 696.743 -403.079 786.111 -455.686C820.749 -475.992 848.886 -505.12 865.933 -541.69C896.757 -607.73 909.79 -680.149 919.868 -752.107" stroke="white" stroke-miterlimit="10"/>
<path d="M-125.917 621.686C-62.2083 615.841 -4.55225 566.699 20.358 506.6C29.1852 485.047 33.895 462.075 32.85 439.094C31.9014 416.31 26.3185 394.562 18.269 373.526C8.92618 349.083 -3.77308 325.786 -16.7233 302.979C-25.1776 287.891 -34.8946 271.216 -44.0109 253.514C-71.4105 200.555 -95.0289 138.535 -69.8214 83.0621C-56.6373 53.8805 -30.8272 31.025 -0.677546 21.5926C44.8676 7.349 94.1865 23.4433 142.248 18.1283C170.71 15.024 196.184 5.78999 216.849 -9.29706C234.888 -22.4925 249.48 -40.2483 259.395 -62.331C279.678 -107.574 289.959 -156.017 311.563 -200.558C348.346 -276.966 419.496 -337.333 501.533 -365.568C506.124 -367.194 510.664 -368.672 515.351 -370.1C601.802 -397.061 693.494 -402.473 773.09 -447.014C777.146 -449.235 781.106 -451.654 785.065 -454.073C818.577 -474.932 845.829 -504.118 862.382 -540.447C892.415 -606.102 905.099 -677.983 914.875 -749.304" stroke="white" stroke-miterlimit="10"/>
<path d="M-132.244 610.452C-71.4134 602.217 -15.4763 552.812 10.4026 494.197C19.6177 473.19 24.9108 450.912 24.7937 428.58C24.7223 406.592 20.4122 385.447 13.5848 365.161C5.70995 341.471 -5.37178 318.732 -16.7526 296.384C-24.2258 281.551 -32.8628 265.084 -41.145 247.587C-65.8446 195.148 -88.3854 133.582 -64.3111 78.2937C-51.6695 49.2541 -26.9876 26.092 2.18588 15.9119C46.3162 0.52258 94.674 14.3937 142.2 8.48295C170.272 5.07954 195.45 -4.00988 216.356 -18.6026C234.488 -31.3544 249.22 -48.3218 259.665 -69.317C281.008 -112.385 293.082 -158.154 315.647 -200.472C354.258 -272.876 425.527 -330.488 506.535 -359.077C511.027 -360.655 515.666 -362.182 520.206 -363.66C605.534 -391.419 694.944 -399.757 771.896 -445.456C775.805 -447.728 779.617 -450.198 783.529 -452.716C815.963 -474.028 842.282 -503.371 858.34 -539.459C887.435 -604.779 899.818 -676.024 909.391 -746.757" stroke="white" stroke-miterlimit="10"/>
<path d="M-138.62 599.127C-80.7159 588.403 -26.4976 538.734 0.448831 481.557C10.0519 461.094 15.9281 439.512 16.7872 417.927C17.6438 396.588 14.505 376.34 9.04926 356.61C2.64235 333.672 -6.77369 311.59 -16.6334 289.601C-23.1254 275.024 -30.6342 258.864 -37.9834 241.524C-59.983 189.604 -81.497 128.638 -58.5559 73.5357C-46.505 44.5393 -22.9031 21.1694 5.29424 10.2416C48.0098 -6.29348 95.4546 5.45329 142.398 -1.15203C170.031 -4.9534 195.059 -13.8476 215.96 -27.9485C234.087 -40.2085 249.058 -56.4356 260.033 -76.3433C282.486 -117.383 296.254 -160.43 319.976 -200.375C360.316 -268.728 431.705 -323.584 511.881 -352.625C516.373 -354.202 520.865 -355.78 525.357 -357.357C609.511 -385.768 696.59 -397.129 770.997 -444.035C774.71 -446.456 778.523 -448.926 782.189 -451.447C813.498 -473.312 838.932 -502.713 854.495 -538.56C882.701 -603.446 894.733 -674.154 904.104 -744.299" stroke="white" stroke-miterlimit="10"/>
<path d="M-144.95 587.898C-89.9235 574.784 -37.424 524.851 -9.45831 469.013C0.532703 449.095 7.09097 428.159 8.82733 407.37C10.6601 386.779 8.59635 367.231 4.41329 348.103C-0.426784 325.871 -8.3242 304.394 -16.6146 282.863C-22.1254 268.543 -28.4554 252.542 -34.9705 235.407C-54.2701 184.007 -74.8054 123.543 -52.8505 68.6761C-41.3421 39.8217 -18.8202 16.2441 8.35282 4.4697C49.5547 -13.1629 96.0891 -3.78636 142.545 -10.8885C169.74 -15.0878 194.57 -23.8857 215.514 -37.3959C233.736 -49.2123 248.894 -64.5521 260.252 -83.4229C283.765 -122.288 299.278 -162.759 324.057 -200.283C366.226 -264.634 437.635 -316.685 516.88 -346.129C521.324 -347.806 525.718 -349.335 530.21 -350.912C613.19 -379.974 697.987 -394.261 769.8 -442.472C773.465 -444.992 777.032 -447.465 780.649 -450.084C810.881 -472.403 835.283 -501.913 850.403 -537.666C877.67 -602.218 889.402 -672.289 898.57 -741.845" stroke="white" stroke-miterlimit="10"/>
<path d="M-151.185 576.616C-98.9373 561.063 -48.2556 510.915 -19.2224 456.514C-8.89157 437.043 -1.70197 416.9 1.01053 396.859C3.72054 377.064 2.92956 358.119 -0.031442 339.742C-3.35537 318.36 -9.63526 297.441 -16.3056 276.222C-20.7364 262.11 -26.1841 246.412 -31.7663 229.435C-48.6117 178.551 -67.8236 118.544 -47.0019 63.8622C-36.0842 35.051 -14.7411 11.3138 11.6028 -1.15776C51.3417 -20.0349 97.0114 -12.6839 142.884 -20.4806C169.688 -24.979 194.321 -33.6805 215.308 -46.6C233.573 -57.8257 248.921 -72.5241 260.809 -90.3075C285.481 -127.045 302.736 -164.695 328.575 -200.044C372.621 -260.293 444.101 -309.688 522.416 -339.535C526.761 -341.163 531.106 -342.791 535.55 -344.468C617.357 -374.181 699.824 -391.492 769.043 -441.008C772.561 -443.579 776.08 -446.15 779.451 -448.772C808.605 -471.544 832.074 -501.212 846.7 -536.724C873.177 -600.89 884.459 -670.376 893.424 -739.344" stroke="white" stroke-miterlimit="10"/>
<path d="M-157.564 565.288C-108.194 547.345 -59.2795 496.835 -29.1788 443.871C-18.4601 424.945 -10.6873 405.496 -6.89975 386.155C-3.2136 367.108 -2.88135 348.961 -4.47075 331.139C-6.32671 310.51 -10.9891 290.148 -16.0901 269.388C-19.5398 255.532 -23.7604 240.093 -28.5085 223.321C-42.6538 172.956 -60.8872 113.451 -41.1504 59.0532C-30.8234 30.2852 -10.5604 6.34029 14.8073 -6.87896C53.1315 -26.9018 97.9389 -21.8222 143.178 -30.1664C169.543 -35.0628 194.027 -43.5691 215.009 -55.9968C233.367 -66.7788 248.855 -80.6888 261.273 -97.3846C287.005 -131.948 306.004 -167.022 332.853 -200.049C378.727 -256.295 450.228 -302.886 527.711 -333.184C532.008 -334.911 536.353 -336.539 540.6 -338.119C621.283 -368.631 701.468 -388.867 768.042 -439.541C771.414 -442.163 774.785 -444.785 778.06 -447.604C806.088 -470.929 828.673 -500.655 842.804 -535.926C868.343 -599.758 879.324 -668.607 888.086 -736.987" stroke="white" stroke-miterlimit="10"/>
<path d="M-163.892 554.062C-117.399 533.728 -70.2034 482.955 -39.0834 431.33C-27.9767 412.948 -19.6207 394.194 -14.8571 375.601C-10.243 357.202 -8.68869 339.806 -9.10421 322.635C-9.49221 302.759 -12.537 282.955 -16.0687 262.654C-18.4384 249.005 -21.6778 233.822 -25.5918 217.255C-37.0372 167.41 -54.193 108.358 -35.5413 54.2445C-25.7568 25.6185 -6.57376 1.46589 17.7697 -12.6C54.5802 -33.7204 98.5253 -30.9122 143.229 -39.8521C169.204 -45.0476 193.49 -53.4574 214.467 -65.3933C232.82 -75.6835 248.646 -88.9015 261.494 -104.462C288.338 -136.997 309.079 -169.249 337.035 -200.002C384.738 -252.246 456.307 -295.934 532.812 -326.734C537.01 -328.413 541.307 -330.14 545.554 -331.72C625.063 -362.883 703.014 -385.945 766.947 -438.024C770.171 -440.696 773.395 -443.369 776.622 -446.287C803.573 -470.066 825.225 -499.948 838.862 -534.979C863.51 -598.376 874.141 -666.688 882.701 -734.48" stroke="white" stroke-miterlimit="10"/>
<path d="M-170.119 542.776C-126.504 520.052 -81.0754 468.917 -48.8397 418.828C-37.3932 400.892 -28.307 382.884 -22.6661 365.086C-17.1747 347.484 -14.4465 330.738 -13.5411 314.27C-12.3623 295.099 -13.8403 275.999 -15.8508 256.057C-17.2393 242.664 -19.3988 227.689 -22.3316 211.378C-31.0769 162.052 -47.2541 103.502 -29.6874 49.6729C-20.4936 21.09 -2.3906 -3.27035 21.0249 -17.9851C56.4206 -40.2512 99.4528 -39.5673 143.574 -49.2018C169.011 -54.7471 193.198 -63.1088 214.365 -74.4033C232.812 -84.2499 248.825 -96.5806 262.156 -111.152C290.158 -141.56 312.545 -171.189 341.559 -199.521C390.991 -247.714 462.779 -288.694 538.354 -319.897C542.552 -321.576 546.701 -323.354 550.899 -325.033C629.235 -356.847 705.003 -382.883 766.342 -436.267C769.419 -438.99 772.595 -441.761 775.576 -444.682C801.45 -468.915 822.069 -498.906 835.263 -533.842C858.974 -596.906 869.303 -664.581 877.708 -731.686" stroke="white" stroke-miterlimit="10"/>
<path d="M-176.443 531.549C-135.707 506.435 -91.9968 455.036 -58.7418 406.285C-46.9073 388.895 -37.2379 371.581 -30.6208 354.531C-24.1533 337.676 -20.302 321.729 -18.1238 305.864C-15.5252 287.346 -15.3375 268.903 -15.7305 249.519C-16.039 236.334 -17.2173 221.615 -19.2172 205.461C-25.3613 156.702 -40.3621 98.5576 -23.9286 44.9136C-15.2773 16.4728 1.59857 -8.14597 24.1368 -23.6566C58.1177 -47.0685 100.189 -48.6079 143.775 -58.838C168.822 -64.6824 192.811 -72.9477 213.973 -83.7504C232.415 -93.1051 248.667 -104.696 262.527 -118.179C291.589 -146.413 315.769 -173.367 345.891 -199.425C397.103 -243.714 468.96 -281.792 543.604 -313.398C547.754 -315.175 551.805 -316.905 556.003 -318.584C633.164 -351.049 706.602 -380.11 765.396 -434.7C768.425 -437.522 771.355 -440.296 774.288 -443.316C799.036 -468.1 818.77 -498.15 831.371 -532.797C854.291 -595.475 864.171 -662.565 872.374 -729.081" stroke="white" stroke-miterlimit="10"/>
<path d="M-182.834 520.225C-144.975 492.721 -102.984 441.058 -68.6616 393.745C-56.5381 376.948 -46.1866 360.28 -38.6416 343.879C-31.1979 327.772 -26.1728 312.476 -22.7219 297.214C-18.6553 279.45 -16.7512 261.516 -15.6738 242.639C-14.9023 229.661 -15.0512 215.297 -16.2652 199.249C-19.7093 151.01 -33.7315 93.3672 -18.2841 39.9591C-10.2235 11.5615 5.62063 -13.1662 27.1345 -29.5235C59.6018 -54.0329 100.811 -57.8437 143.862 -68.6695C168.47 -74.9119 192.309 -82.9819 213.515 -93.1939C232.051 -102.105 248.541 -112.955 262.832 -125.303C293.053 -151.41 318.78 -175.692 350.058 -199.378C403 -239.616 474.976 -274.938 548.789 -306.995C552.84 -308.724 556.99 -310.502 560.992 -312.33C637.031 -345.594 708.186 -377.58 764.336 -433.328C767.218 -436.201 770.051 -439.173 772.787 -442.096C796.457 -467.334 815.259 -497.541 827.365 -531.947C849.347 -594.29 858.926 -660.744 866.925 -726.672" stroke="white" stroke-miterlimit="10"/>
<path d="M-189.156 508.992C-154.175 479.098 -113.951 427.073 -78.5611 381.197C-66.0978 364.846 -55.0162 348.923 -46.5939 333.318C-38.3211 317.908 -32.0738 303.363 -27.302 288.803C-21.7675 271.791 -18.1977 254.514 -15.599 235.996C-13.8464 223.275 -12.9153 209.118 -13.1481 193.326C-13.9404 145.508 -26.8369 88.4175 -12.5734 35.3417C-5.05532 7.08616 9.66059 -17.9481 30.1983 -35.0532C61.2026 -60.8071 101.547 -66.6434 144.014 -78.1638C168.232 -84.7053 191.826 -92.7779 213.075 -102.399C231.606 -110.818 248.382 -120.83 263.105 -132.042C294.533 -155.923 321.857 -177.681 354.243 -199.092C409.013 -235.327 481.11 -267.893 553.893 -300.305C557.896 -302.133 561.946 -303.863 565.949 -305.691C640.814 -339.607 709.687 -374.518 763.243 -431.571C765.978 -434.495 768.665 -437.517 771.352 -440.539C793.896 -466.33 811.813 -496.595 823.425 -530.761C844.517 -592.67 853.746 -658.586 861.543 -723.926" stroke="white" stroke-miterlimit="10"/>
<path d="M-195.385 497.712C-163.182 465.379 -124.776 413.14 -88.4657 368.65C-75.6145 352.844 -63.9496 337.616 -54.5512 322.759C-45.3023 308.097 -37.9318 294.35 -31.8872 280.393C-24.8847 264.134 -19.5985 247.366 -15.5294 229.355C-12.6968 216.841 -10.7846 202.94 -10.0845 187.306C-8.17671 140.007 -20.0945 83.4183 -6.86535 30.4795C0.0620712 2.2671 13.7462 -22.8761 33.3077 -40.7289C62.8973 -67.6285 102.28 -75.688 144.213 -87.8041C168.04 -94.6446 191.436 -102.621 212.68 -111.75C231.305 -119.726 248.221 -128.949 263.474 -139.074C296.06 -160.827 325.078 -179.863 358.474 -198.952C414.974 -231.136 487.189 -260.947 559.141 -293.809C563.144 -295.638 567.047 -297.418 571.002 -299.345C644.693 -333.912 711.236 -371.847 762.246 -430.107C764.834 -433.081 767.374 -436.154 769.914 -439.227C791.381 -465.472 808.365 -495.894 819.434 -529.917C839.588 -591.492 848.615 -656.819 856.11 -721.523" stroke="white" stroke-miterlimit="10"/>
<path d="M-201.767 486.385C-172.442 451.662 -135.803 399.06 -98.3768 356.106C-85.1376 340.845 -72.8896 326.312 -62.515 312.202C-52.2899 298.288 -43.7456 285.192 -36.4283 271.839C-27.8589 256.284 -21.0541 240.122 -15.4157 222.57C-11.503 210.264 -8.60969 196.619 -7.02724 181.288C-2.41945 134.509 -13.2598 78.3737 -1.11566 25.719C5.22107 -2.45019 17.8252 -27.8011 36.4106 -46.4016C64.4865 -74.3988 103.055 -84.6308 144.504 -97.4897C167.892 -104.728 191.139 -112.509 212.426 -121.048C231.045 -128.532 248.347 -136.964 263.983 -146.052C297.728 -165.678 328.536 -181.794 362.944 -198.807C421.031 -227.482 493.508 -253.995 564.53 -287.261C568.433 -289.041 572.388 -290.968 576.244 -292.847C648.859 -328.113 713.072 -369.073 761.438 -428.491C763.879 -431.516 766.371 -434.688 768.763 -437.811C789.054 -464.461 805.105 -495.04 815.779 -528.871C835.094 -590.159 843.72 -654.802 851.013 -718.918" stroke="white" stroke-miterlimit="10"/>
<path d="M-208.092 475.154C-181.693 437.941 -146.724 385.174 -108.279 343.56C-94.6999 328.745 -81.7217 314.957 -70.4698 301.643C-59.3675 288.524 -49.6493 276.081 -41.0111 263.429C-30.9737 248.627 -22.4044 233.073 -15.2448 215.881C-10.2039 203.881 -6.23055 190.444 -3.86218 175.22C3.44564 128.96 -6.41596 73.3265 4.64311 20.9559C10.4373 -7.07127 21.8143 -32.6806 39.5225 -52.0771C66.1836 -81.22 103.791 -93.6752 144.705 -107.13C167.703 -114.667 190.752 -122.352 212.132 -130.447C230.846 -137.487 248.094 -145.526 264.453 -153.131C299.839 -169.643 331.666 -184.419 367.375 -198.763C427.384 -222.992 499.935 -247.093 569.978 -280.861C573.834 -282.74 577.689 -284.619 581.545 -286.498C652.987 -322.416 714.87 -366.4 760.69 -427.024C763.083 -430.148 765.328 -433.322 767.673 -436.545C786.838 -463.747 802.004 -494.384 812.184 -527.974C830.609 -588.829 838.885 -652.934 845.975 -716.462" stroke="white" stroke-miterlimit="10"/>
<path d="M-214.419 463.923C-190.898 424.321 -157.648 371.291 -118.184 331.014C-104.217 316.744 -90.6551 303.651 -78.4271 291.085C-66.3968 278.615 -55.4084 267.02 -45.5963 255.02C-34.0429 241.07 -23.7571 226.025 -15.1752 209.241C-9.05431 197.449 -4.09982 184.268 -0.897353 169.249C9.11051 123.508 0.326413 68.3286 10.3005 16.2421C15.504 -11.7419 25.8492 -37.4601 42.5812 -57.6043C67.8275 -87.8929 104.522 -102.473 144.853 -116.622C167.412 -124.557 190.263 -132.145 211.687 -139.65C230.396 -146.198 248.222 -153.051 264.771 -160.014C300.93 -175.19 334.837 -186.453 371.507 -198.573C433.296 -218.899 505.916 -240.097 575.028 -274.268C578.785 -276.099 582.593 -278.077 586.4 -280.055C656.62 -316.723 716.221 -363.632 759.495 -425.463C761.741 -428.637 763.939 -431.91 766.038 -435.135C784.125 -462.791 798.358 -493.586 808.043 -526.935C825.531 -587.454 833.505 -650.923 840.393 -713.863" stroke="white" stroke-miterlimit="10"/>
<path d="M-220.706 452.548C-200.062 410.555 -168.58 357.162 -127.999 318.422C-113.644 304.697 -99.4998 292.298 -86.2956 280.48C-73.2892 268.758 -61.2257 257.863 -50.042 246.418C-36.9217 233.172 -25.0185 218.684 -14.9662 202.407C-7.86415 190.871 -1.82957 177.898 2.35404 163.135C15.0619 117.913 7.25643 63.2357 16.1962 11.2862C20.8572 -16.5557 30.0742 -42.5805 45.83 -63.4725C69.5627 -94.8586 105.395 -111.71 145.19 -126.454C167.359 -134.689 190.013 -142.181 211.48 -149.095C230.282 -155.199 248.297 -161.165 265.327 -167.14C302.646 -180.188 338.198 -188.828 376.024 -198.575C439.642 -214.898 512.282 -233.293 580.563 -267.914C584.272 -269.844 587.98 -271.774 591.788 -273.752C660.833 -311.071 718.251 -360.953 758.834 -424.042C760.932 -427.267 762.983 -430.591 765.033 -433.914C781.995 -462.123 795.295 -493.074 804.486 -526.182C821.083 -586.268 828.708 -649.2 835.393 -711.551" stroke="white" stroke-miterlimit="10"/>
<path d="M-227.03 441.316C-209.265 396.933 -179.501 343.277 -137.901 305.875C-123.207 292.597 -108.332 280.943 -94.2504 269.921C-80.3667 258.995 -67.0305 248.703 -54.6248 238.008C-40.0365 225.515 -26.4675 211.684 -14.8459 195.865C-6.66381 184.537 0.400049 171.918 5.46845 157.214C20.8764 112.511 14.1484 58.2873 21.9043 6.6701C25.9746 -21.1287 34.1116 -47.3612 48.8913 -69.0009C71.2092 -101.533 106.129 -120.508 145.341 -135.948C167.119 -144.481 189.575 -151.877 211.037 -158.299C229.835 -163.912 248.087 -169.137 265.648 -174.024C304.173 -184.847 341.224 -190.913 380.207 -198.288C445.506 -210.659 518.413 -226.247 585.763 -261.272C589.472 -263.202 593.18 -265.131 596.793 -267.259C664.763 -305.278 719.605 -358.187 757.789 -422.431C759.74 -425.706 761.644 -429.081 763.547 -432.455C779.432 -461.118 791.799 -492.226 800.397 -525.045C816.155 -584.844 823.379 -647.091 829.861 -708.854" stroke="white" stroke-miterlimit="10"/>
<path d="M-233.365 430.088C-218.477 383.314 -190.481 329.296 -147.814 293.331C-132.83 280.646 -117.273 269.639 -102.215 259.364C-87.3555 249.186 -72.8961 239.692 -59.2176 229.6C-43.1614 217.86 -27.8278 204.637 -14.7838 189.227C-5.47359 178.205 2.62207 165.696 8.47388 151.343C26.63 107.259 20.8807 53.5369 27.6022 2.05669C31.1301 -25.6 38.187 -52.0403 51.9424 -74.5266C72.7973 -108.303 106.951 -129.352 145.481 -145.438C166.821 -154.37 189.079 -161.669 210.632 -167.401C229.572 -172.471 248.063 -176.956 266.006 -180.807C305.64 -189.356 344.486 -192.994 384.526 -197.948C451.606 -206.414 524.582 -219.1 591.001 -254.527C594.611 -256.409 598.271 -258.438 601.785 -260.517C668.582 -299.187 721.093 -355.12 756.731 -420.571C758.635 -423.945 760.391 -427.371 762.099 -430.895C776.906 -460.011 788.242 -491.228 796.444 -523.854C811.312 -583.22 818.187 -644.929 824.565 -706.152" stroke="white" stroke-miterlimit="10"/>
<path d="M-239.59 418.811C-227.481 369.599 -201.302 315.365 -157.567 280.838C-142.196 268.697 -126.056 258.385 -110.07 248.759C-94.2823 239.23 -78.6008 230.486 -63.6496 220.998C-46.1254 210.01 -29.1262 197.444 -14.561 182.393C-4.17079 171.579 4.90604 159.325 11.6908 145.13C32.547 101.565 27.8752 48.2969 33.3646 -2.94991C36.4006 -30.6116 42.1798 -57.1633 55.1061 -80.3467C74.4474 -115.221 107.787 -138.442 145.734 -155.223C166.584 -164.405 188.645 -171.608 210.292 -176.897C229.226 -181.475 248.004 -185.121 266.33 -187.935C307.219 -194.159 347.615 -195.371 388.712 -197.904C457.572 -202.466 530.716 -212.298 596.205 -248.128C599.766 -250.109 603.328 -252.089 606.841 -254.168C672.416 -293.589 722.744 -352.496 755.738 -419.104C757.447 -422.628 759.104 -426.005 760.665 -429.58C774.346 -459.249 784.797 -490.524 792.505 -522.909C806.435 -581.94 813.009 -643.014 819.184 -703.648" stroke="white" stroke-miterlimit="10"/>
<path d="M-245.974 407.478C-236.743 355.875 -212.283 301.378 -167.529 268.19C-151.818 256.495 -134.947 246.928 -118.084 238.098C-101.419 229.365 -84.564 221.273 -68.2919 212.486C-49.2008 202.203 -30.5359 190.293 -14.5485 175.65C-3.03009 165.143 7.02793 153.145 14.5986 139.056C38.1548 96.011 34.4617 43.2442 38.965 -7.76666C41.4103 -35.3852 46.1094 -62.1446 58.0596 -86.0757C75.9861 -122.095 108.364 -147.54 145.776 -164.916C166.236 -174.398 188.099 -181.504 209.741 -186.301C228.77 -190.436 247.735 -193.194 266.543 -195.02C308.639 -199.018 350.533 -197.657 392.838 -197.965C463.526 -198.524 536.69 -205.551 601.249 -241.785C604.81 -243.766 608.225 -245.797 611.69 -247.975C676.19 -288.095 724.137 -349.879 754.489 -417.891C756.051 -421.466 757.612 -425.041 759.074 -428.568C771.678 -458.69 781.196 -490.122 788.409 -522.267C801.45 -580.864 807.673 -641.4 813.646 -701.446" stroke="white" stroke-miterlimit="10"/>
<path d="M-252.29 396.25C-245.937 342.258 -223.244 287.399 -177.374 255.746C-145.373 233.544 -108.105 220.642 -72.8176 204.179C-37.5301 187.716 -2.68439 166.33 17.7701 133.238C58.2304 67.6399 30.0147 -21.1358 61.2768 -91.5494C86.6513 -148.939 147.947 -183.583 209.553 -195.499C271.159 -207.415 334.641 -200.669 397.323 -197.572C473.724 -193.942 550.998 -198.812 617.046 -241.277C680.372 -282.049 725.989 -346.857 753.796 -416.076C789.677 -505.38 799.326 -602.82 808.564 -698.593" stroke="white" stroke-miterlimit="10"/>
</g>
<g opacity="0.2">
<path d="M1083.31 713.964C1173.77 709.277 1250.95 620.885 1243.71 530.7C1239.6 479.847 1213.06 433.931 1186.11 390.667C1147.97 329.483 1092.33 243.183 1127.37 168.725C1141.15 139.5 1167.99 116.753 1199.12 108.069C1246.17 94.9227 1296.36 113.288 1344.85 108.617C1398.86 103.461 1441.65 75.2693 1461.78 25.4504C1481 -21.9676 1489.54 -72.9866 1509.99 -119.9C1544.99 -200.212 1616.07 -263.481 1698.94 -291.265C1794.89 -323.343 1899.74 -322.079 1989.11 -374.686C2023.75 -394.992 2051.89 -424.12 2068.93 -460.69C2099.76 -526.73 2112.79 -599.149 2122.87 -671.107" stroke="white" stroke-miterlimit="10"/>
<path d="M1077.08 702.686C1140.79 696.841 1198.45 647.699 1223.36 587.6C1232.19 566.047 1236.89 543.075 1235.85 520.094C1234.9 497.31 1229.32 475.562 1221.27 454.526C1211.93 430.083 1199.23 406.786 1186.28 383.979C1177.82 368.891 1168.11 352.216 1158.99 334.514C1131.59 281.555 1107.97 219.535 1133.18 164.062C1146.36 134.88 1172.17 112.025 1202.32 102.593C1247.87 88.349 1297.19 104.443 1345.25 99.1283C1373.71 96.024 1399.18 86.79 1419.85 71.7029C1437.89 58.5075 1452.48 40.7517 1462.4 18.669C1482.68 -26.574 1492.96 -75.0175 1514.56 -119.558C1551.35 -195.966 1622.5 -256.333 1704.53 -284.568C1709.12 -286.194 1713.66 -287.672 1718.35 -289.1C1804.8 -316.061 1896.49 -321.473 1976.09 -366.014C1980.15 -368.235 1984.11 -370.654 1988.07 -373.073C2021.58 -393.932 2048.83 -423.118 2065.38 -459.447C2095.41 -525.102 2108.1 -596.983 2117.88 -668.304" stroke="white" stroke-miterlimit="10"/>
<path d="M1070.76 691.452C1131.59 683.217 1187.52 633.812 1213.4 575.197C1222.62 554.19 1227.91 531.912 1227.79 509.58C1227.72 487.592 1223.41 466.447 1216.58 446.161C1208.71 422.471 1197.63 399.732 1186.25 377.384C1178.77 362.551 1170.14 346.084 1161.85 328.587C1137.16 276.148 1114.61 214.582 1138.69 159.294C1151.33 130.254 1176.01 107.092 1205.19 96.9119C1249.32 81.5226 1297.67 95.3937 1345.2 89.4829C1373.27 86.0795 1398.45 76.9901 1419.36 62.3974C1437.49 49.6456 1452.22 32.6782 1462.66 11.683C1484.01 -31.3849 1496.08 -77.1541 1518.65 -119.472C1557.26 -191.876 1628.53 -249.488 1709.53 -278.077C1714.03 -279.655 1718.67 -281.182 1723.21 -282.66C1808.53 -310.419 1897.94 -318.757 1974.9 -364.456C1978.8 -366.728 1982.62 -369.198 1986.53 -371.716C2018.96 -393.028 2045.28 -422.371 2061.34 -458.459C2090.44 -523.779 2102.82 -595.024 2112.39 -665.757" stroke="white" stroke-miterlimit="10"/>
<path d="M1064.38 680.127C1122.28 669.403 1176.5 619.734 1203.45 562.557C1213.05 542.094 1218.93 520.512 1219.79 498.927C1220.64 477.588 1217.51 457.34 1212.05 437.61C1205.64 414.672 1196.23 392.59 1186.37 370.601C1179.87 356.024 1172.37 339.864 1165.02 322.524C1143.02 270.604 1121.5 209.638 1144.44 154.536C1156.49 125.539 1180.1 102.169 1208.29 91.2416C1251.01 74.7065 1298.45 86.4533 1345.4 79.848C1373.03 76.0466 1398.06 67.1524 1418.96 53.0515C1437.09 40.7915 1452.06 24.5644 1463.03 4.65668C1485.49 -36.3832 1499.25 -79.4298 1522.98 -119.375C1563.32 -187.728 1634.7 -242.584 1714.88 -271.625C1719.37 -273.202 1723.86 -274.78 1728.36 -276.357C1812.51 -304.768 1899.59 -316.129 1974 -363.035C1977.71 -365.456 1981.52 -367.926 1985.19 -370.447C2016.5 -392.312 2041.93 -421.713 2057.5 -457.56C2085.7 -522.446 2097.73 -593.154 2107.1 -663.299" stroke="white" stroke-miterlimit="10"/>
<path d="M1058.05 668.898C1113.08 655.784 1165.58 605.851 1193.54 550.013C1203.53 530.095 1210.09 509.159 1211.83 488.37C1213.66 467.779 1211.6 448.231 1207.41 429.103C1202.57 406.871 1194.68 385.394 1186.39 363.863C1180.87 349.543 1174.54 333.542 1168.03 316.407C1148.73 265.007 1128.19 204.543 1150.15 149.676C1161.66 120.822 1184.18 97.2441 1211.35 85.4697C1252.55 67.8371 1299.09 77.2136 1345.55 70.1115C1372.74 65.9122 1397.57 57.1143 1418.51 43.6041C1436.74 31.7877 1451.89 16.4479 1463.25 -2.42293C1486.77 -41.2878 1502.28 -81.7589 1527.06 -119.283C1569.23 -183.634 1640.63 -235.685 1719.88 -265.129C1724.32 -266.806 1728.72 -268.335 1733.21 -269.912C1816.19 -298.974 1900.99 -313.261 1972.8 -361.472C1976.47 -363.992 1980.03 -366.465 1983.65 -369.084C2013.88 -391.403 2038.28 -420.913 2053.4 -456.666C2080.67 -521.218 2092.4 -591.289 2101.57 -660.845" stroke="white" stroke-miterlimit="10"/>
<path d="M1051.81 657.616C1104.06 642.063 1154.74 591.915 1183.78 537.514C1194.11 518.043 1201.3 497.9 1204.01 477.859C1206.72 458.064 1205.93 439.119 1202.97 420.742C1199.64 399.36 1193.36 378.441 1186.69 357.222C1182.26 343.11 1176.82 327.412 1171.23 310.435C1154.39 259.551 1135.18 199.544 1156 144.862C1166.92 116.051 1188.26 92.3138 1214.6 79.8422C1254.34 60.9651 1300.01 68.3161 1345.88 60.5194C1372.69 56.021 1397.32 47.3195 1418.31 34.4C1436.57 23.1743 1451.92 8.47586 1463.81 -9.30746C1488.48 -46.0455 1505.74 -83.6951 1531.57 -119.044C1575.62 -179.293 1647.1 -228.688 1725.42 -258.535C1729.76 -260.163 1734.11 -261.791 1738.55 -263.468C1820.36 -293.181 1902.82 -310.492 1972.04 -360.008C1975.56 -362.579 1979.08 -365.15 1982.45 -367.772C2011.61 -390.544 2035.07 -420.212 2049.7 -455.724C2076.18 -519.89 2087.46 -589.376 2096.42 -658.344" stroke="white" stroke-miterlimit="10"/>
<path d="M1045.44 646.288C1094.81 628.345 1143.72 577.835 1173.82 524.871C1184.54 505.945 1192.31 486.496 1196.1 467.155C1199.79 448.108 1200.12 429.961 1198.53 412.139C1196.67 391.51 1192.01 371.148 1186.91 350.388C1183.46 336.532 1179.24 321.093 1174.49 304.321C1160.35 253.956 1142.11 194.451 1161.85 140.053C1172.18 111.285 1192.44 87.3403 1217.81 74.121C1256.13 54.0982 1300.94 59.1778 1346.18 50.8336C1372.54 45.9372 1397.03 37.4309 1418.01 25.0032C1436.37 14.2212 1451.86 0.311171 1464.27 -16.3846C1490.01 -50.9476 1509 -86.0217 1535.85 -119.049C1581.73 -175.295 1653.23 -221.886 1730.71 -252.184C1735.01 -253.911 1739.35 -255.539 1743.6 -257.119C1824.28 -287.631 1904.47 -307.867 1971.04 -358.541C1974.41 -361.163 1977.78 -363.785 1981.06 -366.604C2009.09 -389.929 2031.67 -419.655 2045.8 -454.926C2071.34 -518.758 2082.32 -587.607 2091.09 -655.987" stroke="white" stroke-miterlimit="10"/>
<path d="M1039.11 635.062C1085.6 614.728 1132.8 563.955 1163.92 512.33C1175.02 493.948 1183.38 475.194 1188.14 456.601C1192.76 438.202 1194.31 420.806 1193.9 403.635C1193.51 383.759 1190.46 363.955 1186.93 343.654C1184.56 330.005 1181.32 314.822 1177.41 298.255C1165.96 248.41 1148.81 189.358 1167.46 135.245C1177.24 106.619 1196.43 82.4659 1220.77 68.4C1257.58 47.2796 1301.53 50.0878 1346.23 41.1479C1372.2 35.9524 1396.49 27.5426 1417.47 15.6067C1435.82 5.31649 1451.65 -7.90151 1464.49 -23.4616C1491.34 -55.9966 1512.08 -88.2493 1540.04 -119.002C1587.74 -171.246 1659.31 -214.934 1735.81 -245.734C1740.01 -247.413 1744.31 -249.14 1748.55 -250.72C1828.06 -281.883 1906.01 -304.945 1969.95 -357.024C1973.17 -359.696 1976.4 -362.369 1979.62 -365.287C2006.57 -389.066 2028.22 -418.948 2041.86 -453.979C2066.51 -517.376 2077.14 -585.688 2085.7 -653.48" stroke="white" stroke-miterlimit="10"/>
<path d="M1032.88 623.776C1076.5 601.052 1121.92 549.917 1154.16 499.828C1165.61 481.892 1174.69 463.884 1180.33 446.086C1185.83 428.484 1188.55 411.738 1189.46 395.27C1190.64 376.099 1189.16 356.999 1187.15 337.057C1185.76 323.664 1183.6 308.689 1180.67 292.378C1171.92 243.052 1155.75 184.502 1173.31 130.673C1182.51 102.09 1200.61 77.7296 1224.02 63.0149C1259.42 40.7488 1302.45 41.4327 1346.57 31.7982C1372.01 26.2529 1396.2 17.8912 1417.37 6.59669C1435.81 -3.24986 1451.83 -15.5806 1465.16 -30.152C1493.16 -60.5601 1515.54 -90.1892 1544.56 -118.521C1593.99 -166.714 1665.78 -207.694 1741.35 -238.897C1745.55 -240.576 1749.7 -242.354 1753.9 -244.033C1832.23 -275.847 1908 -301.883 1969.34 -355.267C1972.42 -357.99 1975.6 -360.761 1978.58 -363.682C2004.45 -387.915 2025.07 -417.906 2038.26 -452.842C2061.97 -515.906 2072.3 -583.581 2080.71 -650.686" stroke="white" stroke-miterlimit="10"/>
<path d="M1026.56 612.549C1067.29 587.435 1111 536.036 1144.26 487.285C1156.09 469.895 1165.76 452.581 1172.38 435.531C1178.85 418.676 1182.7 402.729 1184.88 386.864C1187.47 368.346 1187.66 349.903 1187.27 330.519C1186.96 317.334 1185.78 302.615 1183.78 286.461C1177.64 237.702 1162.64 179.558 1179.07 125.914C1187.72 97.4728 1204.6 72.854 1227.14 57.3434C1261.12 33.9315 1303.19 32.3921 1346.77 22.162C1371.82 16.3176 1395.81 8.05228 1416.97 -2.7504C1435.42 -12.1051 1451.67 -23.6955 1465.53 -37.1795C1494.59 -65.4125 1518.77 -92.3672 1548.89 -118.425C1600.1 -162.714 1671.96 -200.792 1746.6 -232.398C1750.75 -234.175 1754.81 -235.905 1759 -237.584C1836.16 -270.049 1909.6 -299.11 1968.4 -353.7C1971.42 -356.522 1974.36 -359.296 1977.29 -362.316C2002.04 -387.1 2021.77 -417.15 2034.37 -451.797C2057.29 -514.475 2067.17 -581.565 2075.37 -648.081" stroke="white" stroke-miterlimit="10"/>
<path d="M1020.17 601.225C1058.02 573.721 1100.02 522.058 1134.34 474.745C1146.46 457.948 1156.81 441.28 1164.36 424.879C1171.8 408.772 1176.83 393.476 1180.28 378.214C1184.34 360.45 1186.25 342.516 1187.33 323.639C1188.1 310.661 1187.95 296.297 1186.73 280.249C1183.29 232.01 1169.27 174.367 1184.72 120.959C1192.78 92.5615 1208.62 67.8338 1230.13 51.4765C1262.6 26.9671 1303.81 23.1563 1346.86 12.3305C1371.47 6.08813 1395.31 -1.98194 1416.51 -12.1939C1435.05 -21.105 1451.54 -31.9552 1465.83 -44.3035C1496.05 -70.4097 1521.78 -94.6925 1553.06 -118.378C1606 -158.616 1677.98 -193.938 1751.79 -225.995C1755.84 -227.724 1759.99 -229.502 1763.99 -231.33C1840.03 -264.594 1911.19 -296.58 1967.34 -352.328C1970.22 -355.201 1973.05 -358.173 1975.79 -361.096C1999.46 -386.334 2018.26 -416.541 2030.36 -450.947C2052.35 -513.29 2061.93 -579.744 2069.93 -645.672" stroke="white" stroke-miterlimit="10"/>
<path d="M1013.84 589.992C1048.83 560.098 1089.05 508.073 1124.44 462.197C1136.9 445.846 1147.98 429.923 1156.41 414.318C1164.68 398.908 1170.93 384.363 1175.7 369.803C1181.23 352.791 1184.8 335.514 1187.4 316.996C1189.15 304.275 1190.08 290.118 1189.85 274.326C1189.06 226.508 1176.16 169.418 1190.43 116.342C1197.94 88.0862 1212.66 63.0519 1233.2 45.9468C1264.2 20.1929 1304.55 14.3566 1347.01 2.83619C1371.23 -3.70525 1394.83 -11.7779 1416.07 -21.3992C1434.61 -29.8184 1451.38 -39.8295 1466.1 -51.042C1497.53 -74.9225 1524.86 -96.6805 1557.24 -118.092C1612.01 -154.327 1684.11 -186.893 1756.89 -219.305C1760.9 -221.133 1764.95 -222.863 1768.95 -224.691C1843.81 -258.607 1912.69 -293.518 1966.24 -350.571C1968.98 -353.495 1971.66 -356.517 1974.35 -359.539C1996.9 -385.33 2014.81 -415.595 2026.42 -449.761C2047.52 -511.67 2056.75 -577.586 2064.54 -642.926" stroke="white" stroke-miterlimit="10"/>
<path d="M1007.62 578.712C1039.82 546.379 1078.22 494.14 1114.53 449.65C1127.39 433.844 1139.05 418.616 1148.45 403.759C1157.7 389.097 1165.07 375.35 1171.11 361.393C1178.12 345.134 1183.4 328.366 1187.47 310.355C1190.3 297.841 1192.22 283.94 1192.92 268.306C1194.82 221.007 1182.91 164.418 1196.13 111.479C1203.06 83.2671 1216.75 58.1239 1236.31 40.2711C1265.9 13.3715 1305.28 5.31202 1347.21 -6.8041C1371.04 -13.6446 1394.44 -21.6209 1415.68 -30.7503C1434.3 -38.726 1451.22 -47.9487 1466.47 -58.0737C1499.06 -79.8273 1528.08 -98.8627 1561.47 -117.952C1617.97 -150.136 1690.19 -179.947 1762.14 -212.809C1766.14 -214.638 1770.05 -216.418 1774 -218.345C1847.69 -252.912 1914.24 -290.847 1965.25 -349.107C1967.83 -352.081 1970.37 -355.154 1972.91 -358.227C1994.38 -384.472 2011.36 -414.894 2022.43 -448.917C2042.59 -510.492 2051.61 -575.819 2059.11 -640.523" stroke="white" stroke-miterlimit="10"/>
<path d="M1001.23 567.385C1030.56 532.662 1067.2 480.06 1104.62 437.106C1117.86 421.845 1130.11 407.312 1140.48 393.202C1150.71 379.288 1159.25 366.192 1166.57 352.839C1175.14 337.284 1181.95 321.122 1187.58 303.57C1191.5 291.264 1194.39 277.619 1195.97 262.288C1200.58 215.509 1189.74 159.374 1201.88 106.719C1208.22 78.5498 1220.83 53.1989 1239.41 34.5984C1267.49 6.6012 1306.06 -3.63084 1347.5 -16.4897C1370.89 -23.7282 1394.14 -31.5092 1415.43 -40.048C1434.05 -47.5318 1451.35 -55.9636 1466.98 -65.0517C1500.73 -84.6785 1531.54 -100.794 1565.94 -117.807C1624.03 -146.482 1696.51 -172.995 1767.53 -206.261C1771.43 -208.041 1775.39 -209.968 1779.24 -211.847C1851.86 -247.113 1916.07 -288.073 1964.44 -347.491C1966.88 -350.516 1969.37 -353.688 1971.76 -356.811C1992.05 -383.461 2008.11 -414.04 2018.78 -447.871C2038.09 -509.159 2046.72 -573.802 2054.01 -637.918" stroke="white" stroke-miterlimit="10"/>
<path d="M994.908 556.154C1021.31 518.941 1056.28 466.174 1094.72 424.56C1108.3 409.745 1121.28 395.957 1132.53 382.643C1143.63 369.524 1153.35 357.081 1161.99 344.429C1172.03 329.627 1180.6 314.073 1187.76 296.881C1192.8 284.881 1196.77 271.444 1199.14 256.22C1206.45 209.96 1196.58 154.327 1207.64 101.956C1213.44 73.9287 1224.81 48.3194 1242.52 28.9229C1269.18 -0.219956 1306.79 -12.6752 1347.7 -26.1298C1370.7 -33.6674 1393.75 -41.352 1415.13 -49.4471C1433.85 -56.4873 1451.09 -64.5261 1467.45 -72.1313C1502.84 -88.6425 1534.67 -103.419 1570.37 -117.763C1630.38 -141.992 1702.94 -166.093 1772.98 -199.861C1776.83 -201.74 1780.69 -203.619 1784.55 -205.498C1855.99 -241.416 1917.87 -285.4 1963.69 -346.024C1966.08 -349.148 1968.33 -352.322 1970.67 -355.545C1989.84 -382.747 2005 -413.384 2015.18 -446.974C2033.61 -507.829 2041.89 -571.934 2048.98 -635.462" stroke="white" stroke-miterlimit="10"/>
<path d="M988.581 544.923C1012.1 505.321 1045.35 452.291 1084.82 412.014C1098.78 397.744 1112.34 384.651 1124.57 372.085C1136.6 359.615 1147.59 348.02 1157.4 336.02C1168.96 322.07 1179.24 307.025 1187.82 290.241C1193.95 278.449 1198.9 265.268 1202.1 250.249C1212.11 204.508 1203.33 149.329 1213.3 97.2421C1218.5 69.2581 1228.85 43.5399 1245.58 23.3957C1270.83 -6.8929 1307.52 -21.4725 1347.85 -35.6216C1370.41 -43.5572 1393.26 -51.1455 1414.69 -58.6499C1433.4 -65.1982 1451.22 -72.0507 1467.77 -79.0145C1503.93 -94.1898 1537.84 -105.453 1574.51 -117.573C1636.3 -137.899 1708.92 -159.097 1778.03 -193.268C1781.79 -195.099 1785.59 -197.077 1789.4 -199.055C1859.62 -235.723 1919.22 -282.632 1962.5 -344.463C1964.74 -347.637 1966.94 -350.91 1969.04 -354.135C1987.12 -381.791 2001.36 -412.586 2011.04 -445.935C2028.53 -506.454 2036.51 -569.923 2043.39 -632.863" stroke="white" stroke-miterlimit="10"/>
<path d="M982.294 533.548C1002.94 491.555 1034.42 438.162 1075 399.422C1089.36 385.697 1103.5 373.298 1116.7 361.48C1129.71 349.758 1141.77 338.863 1152.96 327.418C1166.08 314.172 1177.98 299.684 1188.03 283.407C1195.14 271.871 1201.17 258.898 1205.35 244.135C1218.06 198.913 1210.26 144.236 1219.2 92.2862C1223.86 64.4443 1233.07 38.4195 1248.83 17.5275C1272.56 -13.8586 1308.4 -30.7096 1348.19 -45.4544C1370.36 -53.6891 1393.01 -61.181 1414.48 -68.0948C1433.28 -74.1994 1451.3 -80.1646 1468.33 -86.1397C1505.65 -99.1882 1541.2 -107.828 1579.02 -117.575C1642.64 -133.898 1715.28 -152.293 1783.56 -186.914C1787.27 -188.844 1790.98 -190.774 1794.79 -192.752C1863.83 -230.071 1921.25 -279.953 1961.83 -343.042C1963.93 -346.267 1965.98 -349.591 1968.03 -352.914C1984.99 -381.123 1998.3 -412.074 2007.49 -445.182C2024.08 -505.268 2031.71 -568.2 2038.39 -630.551" stroke="white" stroke-miterlimit="10"/>
<path d="M975.97 522.316C993.735 477.933 1023.5 424.277 1065.1 386.875C1079.79 373.597 1094.67 361.943 1108.75 350.921C1122.63 339.995 1135.97 329.703 1148.38 319.008C1162.96 306.515 1176.53 292.684 1188.15 276.865C1196.34 265.537 1203.4 252.918 1208.47 238.214C1223.88 193.511 1217.15 139.287 1224.9 87.6701C1228.97 59.8713 1237.11 33.6388 1251.89 11.9991C1274.21 -20.5328 1309.13 -39.5081 1348.34 -54.9475C1370.12 -63.4813 1392.57 -70.8769 1414.04 -77.2988C1432.83 -82.9116 1451.09 -88.1365 1468.65 -93.0242C1507.17 -103.847 1544.22 -109.913 1583.21 -117.288C1648.51 -129.659 1721.41 -145.247 1788.76 -180.272C1792.47 -182.202 1796.18 -184.131 1799.79 -186.259C1867.76 -224.278 1922.6 -277.187 1960.79 -341.431C1962.74 -344.706 1964.64 -348.081 1966.55 -351.455C1982.43 -380.118 1994.8 -411.226 2003.4 -444.045C2019.15 -503.844 2026.38 -566.091 2032.86 -627.854" stroke="white" stroke-miterlimit="10"/>
<path d="M969.635 511.088C984.523 464.314 1012.52 410.296 1055.19 374.331C1070.17 361.646 1085.73 350.639 1100.78 340.364C1115.64 330.186 1130.1 320.692 1143.78 310.6C1159.84 298.86 1175.17 285.637 1188.22 270.227C1197.53 259.205 1205.62 246.696 1211.47 232.343C1229.63 188.259 1223.88 134.537 1230.6 83.0567C1234.13 55.4 1241.19 28.9597 1254.94 6.47338C1275.8 -27.303 1309.95 -48.3521 1348.48 -64.4379C1369.82 -73.3696 1392.08 -80.6688 1413.63 -86.4012C1432.57 -91.4715 1451.06 -95.9561 1469.01 -99.8069C1508.64 -108.356 1547.49 -111.994 1587.53 -116.948C1654.61 -125.414 1727.58 -138.1 1794 -173.527C1797.61 -175.409 1801.27 -177.438 1804.78 -179.517C1871.58 -218.187 1924.09 -274.12 1959.73 -339.571C1961.63 -342.945 1963.39 -346.371 1965.1 -349.895C1979.91 -379.011 1991.24 -410.228 1999.44 -442.854C2014.31 -502.22 2021.19 -563.929 2027.56 -625.152" stroke="white" stroke-miterlimit="10"/>
<path d="M963.41 499.811C975.519 450.599 1001.7 396.365 1045.43 361.838C1060.8 349.697 1076.94 339.385 1092.93 329.759C1108.72 320.23 1124.4 311.486 1139.35 301.998C1156.87 291.01 1173.87 278.444 1188.44 263.393C1198.83 252.579 1207.91 240.325 1214.69 226.13C1235.55 182.565 1230.88 129.297 1236.36 78.0501C1239.4 50.3884 1245.18 23.8367 1258.11 0.65332C1277.45 -34.2206 1310.79 -57.4422 1348.73 -74.2225C1369.58 -83.4052 1391.64 -90.608 1413.29 -95.8967C1432.23 -100.475 1451 -104.121 1469.33 -106.935C1510.22 -113.159 1550.61 -114.371 1591.71 -116.904C1660.57 -121.466 1733.72 -131.298 1799.2 -167.128C1802.77 -169.109 1806.33 -171.089 1809.84 -173.168C1875.42 -212.589 1925.74 -271.496 1958.74 -338.104C1960.45 -341.628 1962.1 -345.005 1963.67 -348.58C1977.35 -378.249 1987.8 -409.524 1995.5 -441.909C2009.44 -500.94 2016.01 -562.014 2022.18 -622.648" stroke="white" stroke-miterlimit="10"/>
<path d="M957.026 488.478C966.257 436.875 990.717 382.378 1035.47 349.19C1051.18 337.495 1068.05 327.928 1084.92 319.098C1101.58 310.365 1118.44 302.273 1134.71 293.486C1153.8 283.203 1172.46 271.293 1188.45 256.65C1199.97 246.143 1210.03 234.145 1217.6 220.056C1241.15 177.011 1237.46 124.244 1241.96 73.2333C1244.41 45.6148 1249.11 18.8554 1261.06 -5.07575C1278.99 -41.0954 1311.36 -66.5402 1348.78 -83.9162C1369.24 -93.3979 1391.1 -100.504 1412.74 -105.301C1431.77 -109.436 1450.73 -112.194 1469.54 -114.02C1511.64 -118.018 1553.53 -116.657 1595.84 -116.965C1666.53 -117.524 1739.69 -124.551 1804.25 -160.785C1807.81 -162.766 1811.22 -164.797 1814.69 -166.975C1879.19 -207.095 1927.14 -268.879 1957.49 -336.891C1959.05 -340.466 1960.61 -344.041 1962.07 -347.568C1974.68 -377.69 1984.2 -409.122 1991.41 -441.267C2004.45 -499.864 2010.67 -560.4 2016.65 -620.446" stroke="white" stroke-miterlimit="10"/>
<path d="M950.71 477.25C957.063 423.258 979.756 368.399 1025.63 336.746C1057.63 314.544 1094.89 301.642 1130.18 285.179C1165.47 268.716 1200.32 247.33 1220.77 214.238C1261.23 148.64 1233.01 59.8642 1264.28 -10.5494C1289.65 -67.939 1350.95 -102.583 1412.55 -114.499C1474.16 -126.415 1537.64 -119.669 1600.32 -116.572C1676.72 -112.942 1754 -117.812 1820.05 -160.277C1883.37 -201.049 1928.99 -265.857 1956.8 -335.076C1992.68 -424.38 2002.33 -521.82 2011.56 -617.593" stroke="white" stroke-miterlimit="10"/>
</g>
<g opacity="0.1">
<path d="M227.415 648.202C279.183 645.52 323.36 594.932 319.212 543.317C316.862 514.214 301.675 487.935 286.247 463.174C264.42 428.158 232.577 378.767 252.632 336.153C260.516 319.428 275.878 306.409 293.692 301.439C320.624 293.915 349.344 304.426 377.099 301.753C408.011 298.802 432.497 282.667 444.02 254.155C455.021 227.017 459.907 197.818 471.61 170.969C491.642 125.005 532.323 88.7949 579.75 72.8938C634.662 54.5352 694.672 55.2585 745.819 25.1508C765.643 13.5292 781.746 -3.14114 791.502 -24.0705C809.143 -61.8665 816.602 -103.313 822.37 -144.495" stroke="white" stroke-miterlimit="10"/>
<path d="M223.851 641.748C260.312 638.403 293.309 610.279 307.566 575.883C312.618 563.548 315.313 550.401 314.715 537.248C314.172 524.209 310.977 511.762 306.37 499.723C301.023 485.733 293.755 472.4 286.344 459.348C281.505 450.712 275.944 441.169 270.727 431.038C255.045 400.729 241.528 365.234 255.955 333.485C263.5 316.784 278.272 303.704 295.527 298.306C321.593 290.154 349.819 299.365 377.325 296.323C393.615 294.546 408.194 289.261 420.021 280.627C430.345 273.075 438.696 262.913 444.371 250.275C455.979 224.381 461.863 196.656 474.227 171.165C495.279 127.436 535.999 92.8868 582.95 76.7274C585.577 75.797 588.176 74.9508 590.859 74.1336C640.336 58.7037 692.812 55.6062 738.366 30.1147C740.688 28.8434 742.954 27.4589 745.22 26.0744C764.4 14.1366 779.996 -2.56703 789.47 -23.3586C806.658 -60.9339 813.917 -102.073 819.512 -142.891" stroke="white" stroke-miterlimit="10"/>
<path d="M220.229 635.321C255.043 630.609 287.057 602.333 301.868 568.787C307.142 556.764 310.171 544.015 310.104 531.233C310.063 518.65 307.597 506.548 303.689 494.938C299.182 481.38 292.84 468.366 286.327 455.575C282.05 447.087 277.107 437.662 272.367 427.648C258.231 397.637 245.33 362.401 259.108 330.759C266.343 314.139 280.469 300.883 297.166 295.057C322.422 286.249 350.098 294.188 377.298 290.805C393.364 288.857 407.774 283.655 419.738 275.304C430.116 268.006 438.547 258.295 444.525 246.279C456.74 221.631 463.65 195.436 476.564 171.217C498.662 129.779 539.45 96.807 585.812 80.4446C588.383 79.5417 591.038 78.6679 593.637 77.8217C642.471 61.9349 693.642 57.1632 737.683 31.0088C739.92 29.7085 742.102 28.295 744.34 26.854C762.903 14.6565 777.966 -2.13703 787.156 -22.7907C803.808 -60.1745 810.895 -100.949 816.374 -141.431" stroke="white" stroke-miterlimit="10"/>
<path d="M216.58 628.838C249.72 622.701 280.75 594.274 296.172 561.551C301.668 549.84 305.031 537.488 305.522 525.135C306.013 512.922 304.216 501.334 301.094 490.042C297.427 476.914 292.038 464.276 286.395 451.692C282.68 443.349 278.382 434.1 274.176 424.176C261.586 394.462 249.273 359.57 262.402 328.034C269.299 311.439 282.807 298.064 298.945 291.81C323.391 282.347 350.545 289.069 377.411 285.289C393.226 283.114 407.55 278.023 419.512 269.953C429.887 262.936 438.455 253.649 444.735 242.256C457.586 218.768 465.466 194.132 479.042 171.271C502.129 132.151 542.986 100.756 588.872 84.1356C591.443 83.2327 594.014 82.33 596.585 81.4271C644.748 65.1675 694.585 58.6651 737.168 31.8203C739.294 30.4343 741.476 29.0209 743.574 27.5784C761.492 15.0647 776.049 -1.76217 784.956 -22.2779C801.098 -59.4135 807.985 -99.8807 813.348 -140.026" stroke="white" stroke-miterlimit="10"/>
<path d="M212.957 622.409C244.45 614.904 274.496 586.327 290.501 554.37C296.219 542.97 299.972 530.988 300.966 519.09C302.015 507.306 300.834 496.118 298.44 485.171C295.67 472.447 291.15 460.155 286.405 447.833C283.251 439.637 279.629 430.48 275.9 420.673C264.855 391.256 253.102 356.652 265.667 325.25C272.253 308.737 285.143 295.243 300.695 288.504C324.275 278.413 350.908 283.779 377.495 279.714C393.059 277.311 407.27 272.276 419.256 264.544C429.685 257.781 438.36 249.002 444.86 238.202C458.318 215.959 467.195 192.797 481.377 171.321C505.511 134.492 546.379 104.702 591.733 87.8507C594.276 86.8913 596.791 86.0161 599.362 85.1133C646.852 68.4808 695.383 60.3042 736.483 32.7124C738.581 31.2699 740.622 29.855 742.692 28.3559C759.994 15.5826 773.96 -1.30654 782.613 -21.7686C798.219 -58.7126 804.933 -98.8156 810.18 -138.624" stroke="white" stroke-miterlimit="10"/>
<path d="M209.389 615.957C239.291 607.056 268.297 578.356 284.913 547.221C290.826 536.077 294.94 524.549 296.493 513.079C298.044 501.75 297.591 490.908 295.896 480.39C293.994 468.153 290.4 456.181 286.582 444.037C284.047 435.96 280.929 426.977 277.734 417.26C268.093 388.139 257.098 353.795 269.014 322.5C275.263 306.011 287.478 292.426 302.555 285.288C325.298 274.485 351.436 278.692 377.689 274.229C393.03 271.655 407.128 266.675 419.139 259.281C429.592 252.856 438.376 244.444 445.18 234.266C459.3 213.241 469.175 191.693 483.963 171.462C509.171 136.981 550.08 108.711 594.902 91.6296C597.388 90.6977 599.875 89.7659 602.418 88.8065C649.237 71.8013 696.435 61.8939 736.05 33.555C738.063 32.0835 740.077 30.612 742.007 29.1115C758.692 16.0785 772.124 -0.900519 780.494 -21.2247C795.647 -57.9481 802.104 -97.7158 807.235 -137.187" stroke="white" stroke-miterlimit="10"/>
<path d="M205.738 609.472C233.993 599.203 261.988 570.295 279.215 539.983C285.349 529.151 289.798 518.02 291.966 506.951C294.075 496.05 294.265 485.664 293.356 475.464C292.294 463.658 289.625 452.005 286.706 440.124C284.731 432.193 282.316 423.358 279.599 413.759C271.503 384.934 261.068 350.878 272.363 319.746C278.274 303.281 289.871 289.577 304.389 282.012C326.322 270.552 351.966 273.459 377.857 268.684C392.947 265.881 406.959 261.013 418.967 253.901C429.474 247.73 438.338 239.769 445.445 230.214C460.172 210.433 471.046 190.359 486.411 171.458C512.666 139.267 553.587 112.602 597.932 95.262C600.391 94.2736 602.878 93.3418 605.308 92.4375C651.484 74.9753 697.375 63.3937 735.477 34.392C737.407 32.8915 739.336 31.391 741.211 29.7773C757.252 16.4282 770.177 -0.584205 778.265 -20.7705C792.881 -57.3023 799.165 -96.7058 804.18 -135.841" stroke="white" stroke-miterlimit="10"/>
<path d="M202.117 603.045C228.726 591.408 255.737 562.35 273.547 532.803C279.904 522.283 284.686 511.55 287.412 500.909C290.053 490.379 290.942 480.423 290.705 470.596C290.483 459.221 288.74 447.886 286.719 436.268C285.362 428.456 283.508 419.767 281.268 410.285C274.718 381.758 264.9 347.961 275.574 316.992C281.174 300.608 292.153 286.786 306.085 278.735C327.152 266.648 352.303 268.255 377.888 263.139C392.753 260.165 406.652 255.352 418.658 248.521C429.162 242.632 438.219 235.067 445.572 226.162C460.935 207.541 472.806 189.082 488.806 171.482C516.107 141.582 557.067 116.579 600.852 98.9516C603.255 97.9907 605.714 97.0023 608.144 96.0981C653.648 78.2631 698.261 65.0639 734.851 35.2586C736.696 33.7291 738.542 32.1996 740.388 30.5293C755.813 16.9205 768.204 -0.18171 776.009 -20.2301C790.116 -56.5138 796.2 -95.6097 801.099 -134.408" stroke="white" stroke-miterlimit="10"/>
<path d="M198.553 596.587C223.515 583.582 249.514 554.316 267.963 525.649C274.514 515.385 279.715 505.078 282.943 494.892C286.086 484.818 287.647 475.235 288.165 465.809C288.84 454.837 287.994 443.906 286.843 432.493C286.049 424.828 284.813 416.258 283.134 406.923C278.129 378.693 268.871 345.184 278.925 314.376C284.186 298.018 294.547 284.076 307.948 275.655C328.205 262.911 352.833 263.303 378.085 257.789C392.643 254.615 406.485 249.83 418.6 243.366C429.157 237.73 438.322 230.673 445.951 222.334C461.977 204.931 474.789 187.973 491.394 171.759C519.685 144.177 560.771 120.723 604.023 102.865C606.426 101.905 608.801 100.887 611.204 99.9264C656.036 81.7186 699.399 66.8177 734.505 36.2653C736.266 34.7068 738.084 33.1207 739.79 31.449C754.597 17.5805 766.398 0.41599 773.949 -19.5787C787.519 -55.6708 793.431 -94.4025 798.241 -132.808" stroke="white" stroke-miterlimit="10"/>
<path d="M194.934 590.162C218.248 575.789 243.264 546.373 262.296 518.472C269.069 508.519 274.603 498.61 278.39 488.852C282.092 479.206 284.296 470.079 285.542 460.999C287.03 450.401 287.137 439.846 286.912 428.752C286.736 421.206 286.061 412.782 284.917 403.537C281.4 375.632 272.815 342.355 282.22 311.653C287.172 295.376 296.83 281.286 309.729 272.409C329.177 259.011 353.255 258.13 378.2 252.275C392.534 248.93 406.264 244.199 418.375 238.017C428.93 232.663 438.231 226.03 446.163 218.313C462.796 202.154 476.634 186.728 493.874 171.814C523.183 146.467 564.308 124.675 607.028 106.586C609.403 105.569 611.722 104.579 614.124 103.618C658.285 85.0374 700.315 68.4057 733.963 37.1629C735.697 35.5478 737.374 33.9603 739.052 32.232C753.216 18.0473 764.51 0.849518 771.722 -18.9797C784.839 -54.8512 790.494 -93.2477 795.188 -131.316" stroke="white" stroke-miterlimit="10"/>
<path d="M191.276 583.681C212.943 567.94 236.975 538.372 256.619 511.294C263.557 501.681 269.481 492.142 273.8 482.755C278.06 473.537 280.936 464.783 282.911 456.048C285.238 445.881 286.328 435.617 286.944 424.814C287.386 417.386 287.301 409.166 286.606 399.981C284.635 372.373 276.61 339.383 285.451 308.817C290.064 292.565 299.132 278.413 311.444 269.051C330.026 255.024 353.61 252.843 378.249 246.647C392.333 243.075 405.977 238.456 418.113 232.611C428.721 227.512 438.159 221.302 446.338 214.235C463.634 199.294 478.357 185.396 496.259 171.841C526.558 148.812 567.751 128.597 609.995 110.25C612.314 109.26 614.689 108.243 616.98 107.196C660.498 88.1588 701.221 69.8529 733.356 37.9472C735.006 36.3031 736.628 34.6024 738.193 32.9293C751.74 18.485 762.5 1.19725 769.429 -18.4941C782.009 -54.174 787.492 -92.2063 792.07 -129.938" stroke="white" stroke-miterlimit="10"/>
<path d="M187.658 577.254C207.678 560.145 230.699 530.37 250.953 504.115C258.086 494.757 264.428 485.644 269.249 476.713C273.983 467.894 277.559 459.569 280.29 451.236C283.457 441.5 285.5 431.612 286.987 421.014C287.99 413.733 288.523 405.631 288.39 396.594C287.937 369.226 280.556 336.552 288.719 306.176C293.022 290.005 301.444 275.678 313.198 265.888C330.942 251.149 354.032 247.809 378.337 241.215C392.197 237.472 405.7 232.851 417.861 227.345C428.467 222.527 438.068 216.797 446.494 210.38C464.481 196.713 480.119 184.26 498.654 172.006C530 151.268 571.262 132.63 612.917 114.08C615.207 113.034 617.526 112.044 619.817 110.998C662.663 91.5874 702.08 71.6074 732.731 38.9546C734.296 37.2815 735.834 35.5518 737.372 33.8221C750.274 19.0616 760.529 1.74055 767.174 -17.813C779.245 -53.2446 784.527 -90.9693 788.99 -128.365" stroke="white" stroke-miterlimit="10"/>
<path d="M184.093 570.798C202.523 552.293 224.503 522.395 245.285 496.933C252.64 487.887 259.315 479.172 264.694 470.669C269.988 462.278 274.206 454.41 277.665 446.422C281.673 437.117 284.698 427.52 287.027 417.213C288.648 410.051 289.743 402.095 290.143 393.147C291.235 366.077 284.415 333.691 291.986 303.393C295.95 287.247 303.782 272.857 314.977 262.639C331.912 247.244 354.451 242.632 378.45 235.697C392.087 231.782 405.477 227.218 417.635 221.993C428.294 217.428 437.976 212.15 446.705 206.355C465.355 193.905 481.962 183.011 501.075 172.086C533.411 153.666 574.741 136.605 615.92 117.797C618.211 116.751 620.445 115.732 622.708 114.629C664.883 94.8459 702.966 73.135 732.16 39.7918C733.642 38.0897 735.095 36.331 736.549 34.5723C748.835 19.5522 758.555 2.14123 764.89 -17.331C776.424 -52.5711 781.59 -89.9591 785.88 -126.99" stroke="white" stroke-miterlimit="10"/>
<path d="M180.441 564.315C197.224 544.442 218.193 514.337 239.612 489.754C247.189 481.02 254.199 472.702 260.137 464.627C265.989 456.664 270.879 449.169 275.066 441.526C279.971 432.624 283.865 423.374 287.092 413.329C289.332 406.286 290.987 398.477 291.893 389.703C294.53 362.93 288.326 330.803 295.276 300.668C298.903 284.546 306.117 270.038 316.753 259.392C332.822 243.369 354.895 237.513 378.617 230.154C392.002 226.011 405.307 221.558 417.489 216.671C428.146 212.388 438.048 207.562 446.996 202.361C466.31 191.128 483.941 181.905 503.634 172.168C536.878 155.757 578.358 140.584 619.004 121.545C621.238 120.526 623.502 119.423 625.708 118.348C667.267 98.1642 704.018 74.7226 731.698 40.7165C733.095 38.9854 734.521 37.1701 735.89 35.3824C747.503 20.1302 756.69 2.62932 762.798 -16.7326C773.853 -51.8087 778.789 -88.8049 782.963 -125.499" stroke="white" stroke-miterlimit="10"/>
<path d="M176.821 557.886C191.929 536.589 211.942 506.389 233.945 482.572C241.717 474.094 249.144 466.203 255.584 458.583C261.938 451.075 267.5 443.953 272.444 436.712C278.188 428.241 283.092 419.339 287.19 409.5C290.075 402.632 292.349 394.942 293.704 386.229C297.887 359.753 292.243 327.914 298.572 297.941C301.888 281.901 308.399 267.244 318.534 256.143C333.793 239.464 355.316 232.336 378.732 224.636C391.894 220.322 405.085 215.924 417.321 211.291C428.032 207.262 437.903 202.661 447.265 198.308C467.517 188.859 485.733 180.402 506.169 172.193C540.514 158.326 582.036 144.532 622.122 125.207C624.329 124.131 626.536 123.056 628.742 121.98C669.629 101.424 705.046 76.2515 731.27 41.555C732.639 39.7673 733.924 37.9506 735.266 36.1063C746.235 20.5378 754.915 3.00377 760.74 -16.2203C771.285 -51.0482 776.022 -87.7368 780.08 -124.095" stroke="white" stroke-miterlimit="10"/>
<path d="M173.199 551.459C186.661 528.794 205.69 498.444 228.276 475.393C236.27 467.226 244.031 459.732 251.029 452.541C257.915 445.404 264.203 438.768 269.819 431.9C276.431 423.916 282.318 415.306 287.23 405.7C290.733 398.951 293.568 391.408 295.401 382.812C301.129 356.634 296.101 325.054 301.81 295.244C304.788 279.228 310.708 264.509 320.284 252.98C334.733 235.646 355.734 227.302 378.816 219.204C391.727 214.662 404.805 210.319 417.066 206.024C427.774 202.277 437.976 198.355 447.447 194.369C468.142 185.684 487.547 179.238 508.534 172.301C543.897 160.669 585.458 148.537 625.012 128.98C627.162 127.932 629.342 126.8 631.521 125.668C671.708 104.683 705.819 77.8361 730.586 42.4492C731.871 40.6324 733.129 38.7591 734.33 36.9134C744.682 21.0853 752.828 3.46134 758.371 -15.6248C768.379 -50.2611 772.943 -86.5855 776.885 -122.607" stroke="white" stroke-miterlimit="10"/>
<path d="M169.602 544.948C181.416 520.915 199.434 490.358 222.659 468.186C230.875 460.331 238.97 453.235 246.527 446.471C253.971 439.763 260.875 433.527 267.275 426.977C274.784 419.396 281.597 411.105 287.35 401.789C291.414 395.187 294.868 387.762 297.262 379.313C304.535 353.432 300.068 322.139 305.184 292.407C307.852 276.473 313.127 261.579 322.144 249.622C335.727 231.659 356.234 222.015 379.01 213.576C391.698 208.863 404.662 204.576 416.948 200.619C427.709 197.125 438.019 193.711 447.766 190.291C469.124 182.823 489.471 177.879 511.12 172.3C547.529 162.959 589.102 152.431 628.18 132.616C630.303 131.512 632.426 130.408 634.605 129.275C674.121 107.917 706.982 79.3686 730.208 43.2622C731.409 41.4165 732.582 39.5142 733.756 37.6119C743.463 21.4676 751.075 3.75375 756.335 -15.1945C765.834 -49.5827 770.198 -85.5995 774.024 -121.284" stroke="white" stroke-miterlimit="10"/>
<path d="M165.982 538.519C176.15 513.118 193.184 482.41 216.992 461.004C225.402 453.405 233.915 446.735 241.974 440.427C249.92 434.174 257.552 428.284 264.652 422.163C273.001 415.013 280.767 407.097 287.418 398.044C292.101 391.561 296.144 384.339 299.045 375.923C307.863 350.339 304.012 319.306 308.451 289.765C310.781 273.855 315.438 258.842 323.896 246.457C336.669 227.838 356.654 216.978 379.096 208.142C391.56 203.258 404.412 199.026 416.695 195.35C427.453 192.138 437.899 189.148 447.949 186.35C469.998 180.156 491.203 176.684 513.513 172.464C550.885 165.384 592.611 156.462 631.157 136.417C633.279 135.313 635.402 134.208 637.469 132.991C676.37 111.232 707.756 80.9513 729.61 44.1835C730.727 42.3087 731.816 40.3774 732.905 38.4461C741.996 22.0422 749.074 4.23842 753.995 -14.5444C763.013 -48.7685 767.148 -84.3936 770.858 -119.741" stroke="white" stroke-miterlimit="10"/>
<path d="M162.356 532.097C170.877 505.327 186.899 474.412 211.319 453.829C219.894 446.569 228.797 440.269 237.415 434.389C245.92 428.564 254.195 423.13 262.023 417.355C271.213 410.636 279.988 403.068 287.454 394.248C292.782 387.94 297.415 380.781 300.764 372.567C311.155 347.337 307.865 316.591 311.712 287.128C313.731 271.299 317.77 256.167 325.642 243.298C337.578 223.967 357.124 211.92 379.176 202.714C391.389 197.603 404.127 193.425 416.463 190.144C427.302 187.243 437.885 184.676 448.154 182.472C470.837 177.579 493.069 175.497 515.985 172.662C554.376 167.817 596.141 160.556 634.154 140.281C636.22 139.204 638.315 138.043 640.326 136.853C678.554 114.721 708.608 82.7097 729.004 45.2514C730.093 43.3201 731.099 41.3598 732.076 39.3428C740.55 22.6793 747.038 4.81326 751.732 -13.8593C760.241 -47.8352 764.176 -83.1526 767.826 -118.191" stroke="white" stroke-miterlimit="10"/>
<path d="M158.793 525.642C165.723 497.478 180.706 466.439 205.736 446.678C214.533 439.73 223.771 433.828 232.919 428.319C241.955 422.865 250.93 417.862 259.487 412.431C269.516 406.143 279.245 398.951 287.581 390.337C293.527 384.148 298.722 377.135 302.605 369.011C314.541 344.078 311.868 313.592 315.009 284.262C316.747 268.431 320.054 253.235 327.452 239.967C338.522 220.008 357.602 206.718 379.32 197.114C391.253 191.859 403.878 187.737 416.267 184.71C427.104 182.089 437.851 180.003 448.339 178.392C471.741 174.83 494.86 174.137 518.38 172.687C557.79 170.076 599.651 164.449 637.132 143.943C639.17 142.809 641.208 141.676 643.219 140.486C680.749 117.925 709.552 84.2117 728.435 46.0906C729.413 44.0736 730.362 42.1409 731.255 40.095C739.085 23.1153 745.066 5.2159 749.477 -13.3188C757.45 -47.1031 761.212 -82.0563 764.746 -116.759" stroke="white" stroke-miterlimit="10"/>
<path d="M155.14 519.153C160.423 489.62 174.422 458.431 200.035 439.436C209.027 432.743 218.682 427.268 228.333 422.214C237.871 417.216 247.517 412.585 256.83 407.556C267.756 401.671 278.438 394.855 287.588 386.475C294.181 380.461 299.937 373.595 304.27 365.531C317.751 340.896 315.638 310.697 318.215 281.502C319.614 265.696 322.304 250.381 329.143 236.685C339.403 216.07 357.933 201.508 379.345 191.563C391.054 186.137 403.567 182.069 415.953 179.324C426.843 176.958 437.697 175.379 448.462 174.334C472.554 172.046 496.53 172.825 520.742 172.649C561.198 172.329 603.071 168.307 640.019 147.57C642.057 146.436 644.012 145.274 645.995 144.027C682.909 121.066 710.35 85.7061 727.721 46.7814C728.614 44.7355 729.508 42.6896 730.345 40.6712C737.558 23.4319 743.005 5.44257 747.134 -12.9542C754.597 -46.4904 758.159 -81.136 761.577 -115.502" stroke="white" stroke-miterlimit="10"/>
<path d="M151.525 512.73C155.161 481.83 168.149 450.433 194.401 432.317C212.715 419.611 234.044 412.227 254.24 402.805C274.436 393.383 294.378 381.143 306.085 362.204C329.241 324.661 313.093 273.854 330.984 233.555C345.507 200.71 380.587 180.883 415.845 174.063C451.103 167.243 487.435 171.104 523.309 172.876C567.034 174.954 611.26 172.167 649.06 147.863C685.303 124.529 711.41 87.4384 727.324 47.8232C747.859 -3.28683 753.381 -59.0537 758.669 -113.866" stroke="white" stroke-miterlimit="10"/>
</g>
</g>
<defs>
<linearGradient id="paint0_linear_1_703" x1="-140.019" y1="-46.1483" x2="938.831" y2="776.501" gradientUnits="userSpaceOnUse">
<stop stop-color="#1F9439"/>
<stop offset="1" stop-color="#EFB208"/>
</linearGradient>
<linearGradient id="paint1_linear_1_703" x1="-5.34117" y1="-2.2962e-06" x2="506.779" y2="769.31" gradientUnits="userSpaceOnUse">
<stop stop-color="#5163FF"/>
<stop offset="1" stop-color="#FE71B9"/>
</linearGradient>
<linearGradient id="paint2_linear_1_703" x1="-620.46" y1="1848.35" x2="490.342" y2="737.739" gradientUnits="userSpaceOnUse">
<stop stop-color="white"/>
<stop offset="1"/>
</linearGradient>
<linearGradient id="paint3_linear_1_703" x1="-171.029" y1="250.577" x2="616.33" y2="-536.644" gradientUnits="userSpaceOnUse">
<stop stop-color="white"/>
<stop offset="1"/>
</linearGradient>
<linearGradient id="paint4_linear_1_703" x1="-78.8389" y1="483.975" x2="478.724" y2="-73.49" gradientUnits="userSpaceOnUse">
<stop stop-color="white"/>
<stop offset="1"/>
</linearGradient>
<linearGradient id="paint5_linear_1_703" x1="-100.69" y1="-49.9635" x2="-462.313" y2="311.596" gradientUnits="userSpaceOnUse">
<stop stop-color="white"/>
<stop offset="1"/>
</linearGradient>
<linearGradient id="paint6_linear_1_703" x1="-162.389" y1="2351.16" x2="1683.91" y2="505.19" gradientUnits="userSpaceOnUse">
<stop stop-color="white"/>
<stop offset="1"/>
</linearGradient>
<linearGradient id="paint7_linear_1_703" x1="1030.32" y1="-321.392" x2="1621.02" y2="-911.987" gradientUnits="userSpaceOnUse">
<stop stop-color="white"/>
<stop offset="1"/>
</linearGradient>
<linearGradient id="paint8_linear_1_703" x1="1233.43" y1="524.318" x2="1927.86" y2="-169.992" gradientUnits="userSpaceOnUse">
<stop stop-color="white"/>
<stop offset="1"/>
</linearGradient>
<linearGradient id="paint9_linear_1_703" x1="1319.62" y1="-454.805" x2="633.829" y2="230.862" gradientUnits="userSpaceOnUse">
<stop stop-color="white"/>
<stop offset="1"/>
</linearGradient>
<linearGradient id="paint10_linear_1_703" x1="1990.88" y1="563.793" x2="1086.1" y2="1468.41" gradientUnits="userSpaceOnUse">
<stop stop-color="white"/>
<stop offset="1"/>
</linearGradient>
<linearGradient id="paint11_linear_1_703" x1="-167.431" y1="2285.61" x2="1648.61" y2="469.887" gradientUnits="userSpaceOnUse">
<stop stop-color="white"/>
<stop offset="1"/>
</linearGradient>
<linearGradient id="paint12_linear_1_703" x1="574.416" y1="738.264" x2="931.717" y2="381.025" gradientUnits="userSpaceOnUse">
<stop stop-color="white"/>
<stop offset="1"/>
</linearGradient>
<linearGradient id="paint13_linear_1_703" x1="1030.32" y1="-321.392" x2="1621.02" y2="-911.987" gradientUnits="userSpaceOnUse">
<stop stop-color="white"/>
<stop offset="1"/>
</linearGradient>
<linearGradient id="paint14_linear_1_703" x1="1201.74" y1="433.551" x2="1867.36" y2="-231.95" gradientUnits="userSpaceOnUse">
<stop stop-color="white"/>
<stop offset="1"/>
</linearGradient>
<linearGradient id="paint15_linear_1_703" x1="1948.38" y1="496.794" x2="1073.14" y2="1371.88" gradientUnits="userSpaceOnUse">
<stop stop-color="white"/>
<stop offset="1"/>
</linearGradient>
</defs>
</svg>
